<svg width="591" height="277" viewBox="0 0 591 277" fill="none" xmlns="http://www.w3.org/2000/svg">
<g clip-path="url(#clip0_31_3)">
<path d="M313.061 92.9296H301.581V129H295.254V92.9296H283.746V87.2614H313.061V92.9296ZM340.486 101.747L335.962 106.241C335.275 105.535 334.617 105.029 333.987 104.724C333.357 104.419 332.537 104.266 331.525 104.266C330.456 104.266 329.464 104.543 328.548 105.096C327.651 105.65 326.935 106.432 326.401 107.444C325.867 108.436 325.599 109.6 325.599 110.936V129H319.616V99.2849H325.485V102.491C326.267 101.403 327.365 100.535 328.777 99.886C330.208 99.2371 331.745 98.9127 333.386 98.9127C334.856 98.9127 336.144 99.1322 337.251 99.5711C338.377 99.991 339.455 100.716 340.486 101.747ZM367.252 129H361.384V126.309C360.296 127.397 359.16 128.179 357.977 128.656C356.794 129.115 355.295 129.344 353.482 129.344C351.688 129.344 350.133 129.124 348.816 128.685C347.499 128.227 346.392 127.55 345.495 126.653C343.93 125.03 343.148 122.902 343.148 120.269C343.148 118.57 343.539 117.081 344.322 115.803C345.104 114.505 346.259 113.503 347.786 112.797C349.331 112.072 351.202 111.709 353.397 111.709H361.269V109.591C361.269 107.682 360.754 106.279 359.723 105.382C358.693 104.485 357.042 104.037 354.771 104.037C353.11 104.037 351.812 104.247 350.877 104.667C349.961 105.087 349.083 105.831 348.244 106.9L344.322 103.207C345.677 101.604 347.165 100.487 348.788 99.8574C350.41 99.2276 352.48 98.9127 355 98.9127C363.168 98.9127 367.252 102.319 367.252 109.133V129ZM361.269 118.265V115.86H354.284C352.547 115.86 351.221 116.232 350.305 116.977C349.408 117.721 348.959 118.78 348.959 120.154C348.959 122.96 350.772 124.362 354.398 124.362C355.677 124.362 356.746 124.257 357.605 124.047C358.464 123.818 359.256 123.36 359.981 122.673C360.84 121.815 361.269 120.345 361.269 118.265ZM389.295 104.381H383.398V129H377.415V104.381H374.008V99.8001H377.415V95.2198C377.415 93.7502 377.711 92.3857 378.302 91.1261C378.913 89.8665 379.829 88.8645 381.05 88.1202C382.272 87.3568 383.77 86.9751 385.545 86.9751H389.295V92.0708H386.661C384.486 92.0708 383.398 93.2254 383.398 95.5347V99.8001H389.295V104.381ZM408.533 104.381H402.635V129H396.652V104.381H393.246V99.8001H396.652V95.2198C396.652 93.7502 396.948 92.3857 397.54 91.1261C398.151 89.8665 399.067 88.8645 400.288 88.1202C401.509 87.3568 403.008 86.9751 404.783 86.9751H408.533V92.0708H405.899C403.723 92.0708 402.635 93.2254 402.635 95.5347V99.8001H408.533V104.381ZM421.1 93.4163H414.773V87.0896H421.1V93.4163ZM420.928 129H414.945V99.2849H420.928V129ZM451.989 125.135C451.092 126.09 450.138 126.891 449.126 127.54C448.115 128.17 447.046 128.628 445.92 128.914C444.794 129.2 443.544 129.344 442.17 129.344C439.841 129.344 437.666 128.828 435.643 127.798C433.639 126.767 432.017 125.107 430.776 122.817C429.555 120.526 428.944 117.625 428.944 114.114C428.944 111.423 429.307 109.104 430.032 107.157C430.757 105.211 431.74 103.627 432.98 102.405C434.221 101.184 435.633 100.296 437.217 99.7429C438.801 99.1894 440.452 98.9127 442.17 98.9127C444.269 98.9127 446.082 99.2371 447.609 99.886C449.155 100.535 450.615 101.604 451.989 103.092L447.867 107.071C446.951 106.041 446.073 105.316 445.233 104.896C444.393 104.476 443.372 104.266 442.17 104.266C439.841 104.266 438.009 105.144 436.673 106.9C436.024 107.72 435.566 108.684 435.299 109.791C435.051 110.898 434.927 112.339 434.927 114.114C434.927 117.454 435.509 119.877 436.673 121.385C438.009 123.141 439.841 124.019 442.17 124.019C443.334 124.019 444.345 123.809 445.204 123.389C446.063 122.95 446.951 122.225 447.867 121.213L451.989 125.135ZM314.12 140.93H293.794V153.669H311.143V159.366H293.794V177H287.439V135.261H314.12V140.93ZM344.436 162.114C344.436 164.862 344.188 167.152 343.692 168.984C343.196 170.817 342.27 172.429 340.915 173.822C338.663 176.17 335.695 177.344 332.012 177.344C328.367 177.344 325.418 176.17 323.166 173.822C321.83 172.429 320.905 170.817 320.389 168.984C319.893 167.133 319.645 164.843 319.645 162.114C319.645 159.442 319.903 157.171 320.418 155.3C320.933 153.43 321.849 151.808 323.166 150.434C323.815 149.747 324.569 149.146 325.428 148.63C326.286 148.115 327.279 147.705 328.405 147.399C329.55 147.075 330.752 146.913 332.012 146.913C333.978 146.913 335.705 147.237 337.193 147.886C338.682 148.535 339.923 149.384 340.915 150.434C342.251 151.827 343.167 153.449 343.663 155.3C344.179 157.133 344.436 159.404 344.436 162.114ZM338.453 162.114C338.453 160.167 338.319 158.535 338.052 157.219C337.785 155.883 337.232 154.795 336.392 153.955C335.304 152.829 333.844 152.266 332.012 152.266C330.237 152.266 328.787 152.829 327.661 153.955C326.84 154.795 326.296 155.883 326.029 157.219C325.762 158.535 325.628 160.167 325.628 162.114C325.628 164.041 325.762 165.673 326.029 167.009C326.296 168.326 326.84 169.404 327.661 170.244C328.844 171.427 330.294 172.019 332.012 172.019C333.787 172.019 335.247 171.427 336.392 170.244C337.232 169.404 337.785 168.326 338.052 167.009C338.319 165.673 338.453 164.041 338.453 162.114ZM373.407 149.747L368.884 154.241C368.197 153.535 367.538 153.029 366.909 152.724C366.279 152.419 365.458 152.266 364.447 152.266C363.378 152.266 362.385 152.543 361.469 153.096C360.572 153.65 359.857 154.432 359.322 155.444C358.788 156.436 358.521 157.6 358.521 158.936V177H352.538V147.285H358.406V150.491C359.189 149.403 360.286 148.535 361.698 147.886C363.13 147.237 364.666 146.913 366.307 146.913C367.777 146.913 369.065 147.132 370.172 147.571C371.298 147.991 372.376 148.716 373.407 149.747ZM401.977 163.86H382.682C382.682 165.597 382.978 167.085 383.57 168.326C384.161 169.547 385.011 170.502 386.118 171.189C387.244 171.857 388.627 172.191 390.268 172.191C391.91 172.191 393.236 171.962 394.248 171.504C395.259 171.046 396.337 170.263 397.483 169.156L401.29 172.706C399.668 174.328 398.026 175.511 396.366 176.256C394.706 176.981 392.635 177.344 390.154 177.344C388.245 177.344 386.471 177.067 384.829 176.513C383.207 175.96 381.795 175.082 380.592 173.88C379.39 172.677 378.455 171.103 377.787 169.156C377.119 167.209 376.785 164.862 376.785 162.114C376.785 158.927 377.3 156.197 378.331 153.926C379.381 151.655 380.85 149.919 382.74 148.716C384.629 147.514 386.843 146.913 389.381 146.913C391.977 146.913 394.229 147.514 396.137 148.716C398.046 149.919 399.496 151.608 400.488 153.783C401.481 155.94 401.977 158.421 401.977 161.226V163.86ZM396.051 159.709C395.994 158.163 395.727 156.818 395.25 155.673C394.773 154.528 394.019 153.611 392.988 152.924C391.977 152.237 390.774 151.894 389.381 151.894C388.007 151.894 386.795 152.237 385.745 152.924C384.715 153.611 383.951 154.528 383.455 155.673C383.188 156.283 383.007 156.827 382.911 157.304C382.835 157.762 382.759 158.564 382.682 159.709H396.051ZM431.435 173.135C430.538 174.09 429.583 174.891 428.572 175.54C427.56 176.17 426.492 176.628 425.366 176.914C424.24 177.2 422.99 177.344 421.615 177.344C419.287 177.344 417.111 176.828 415.088 175.798C413.084 174.767 411.462 173.107 410.222 170.817C409 168.526 408.39 165.625 408.39 162.114C408.39 159.423 408.752 157.104 409.477 155.157C410.203 153.211 411.186 151.627 412.426 150.405C413.667 149.184 415.079 148.296 416.663 147.743C418.247 147.189 419.898 146.913 421.615 146.913C423.715 146.913 425.528 147.237 427.055 147.886C428.6 148.535 430.06 149.604 431.435 151.092L427.312 155.071C426.396 154.041 425.518 153.316 424.679 152.896C423.839 152.476 422.818 152.266 421.615 152.266C419.287 152.266 417.455 153.144 416.119 154.9C415.47 155.72 415.012 156.684 414.745 157.791C414.497 158.898 414.373 160.339 414.373 162.114C414.373 165.454 414.955 167.877 416.119 169.385C417.455 171.141 419.287 172.019 421.615 172.019C422.78 172.019 423.791 171.809 424.65 171.389C425.509 170.95 426.396 170.225 427.312 169.213L431.435 173.135ZM460.234 177H454.365V174.309C453.277 175.397 452.142 176.179 450.958 176.656C449.775 177.115 448.277 177.344 446.464 177.344C444.67 177.344 443.115 177.124 441.798 176.685C440.481 176.227 439.374 175.55 438.477 174.653C436.912 173.03 436.129 170.902 436.129 168.269C436.129 166.57 436.521 165.081 437.303 163.803C438.086 162.505 439.24 161.503 440.767 160.797C442.313 160.072 444.183 159.709 446.378 159.709H454.251V157.591C454.251 155.682 453.735 154.279 452.705 153.382C451.674 152.485 450.023 152.037 447.752 152.037C446.092 152.037 444.794 152.247 443.859 152.667C442.943 153.087 442.065 153.831 441.225 154.9L437.303 151.207C438.658 149.604 440.147 148.487 441.769 147.857C443.391 147.228 445.462 146.913 447.981 146.913C456.149 146.913 460.234 150.319 460.234 157.133V177ZM454.251 166.265V163.86H447.265C445.529 163.86 444.202 164.232 443.286 164.977C442.389 165.721 441.941 166.78 441.941 168.154C441.941 170.96 443.754 172.362 447.38 172.362C448.659 172.362 449.727 172.257 450.586 172.047C451.445 171.818 452.237 171.36 452.962 170.673C453.821 169.815 454.251 168.345 454.251 166.265ZM491.437 167.925C491.437 169.948 490.913 171.666 489.863 173.078C488.813 174.49 487.363 175.559 485.512 176.284C483.66 176.99 481.513 177.344 479.07 177.344C477.296 177.344 475.683 177.219 474.232 176.971C472.801 176.723 471.456 176.294 470.196 175.683C468.955 175.072 467.753 174.204 466.589 173.078L470.511 169.156C472.515 171.217 475.368 172.248 479.07 172.248C480.292 172.248 481.399 172.095 482.391 171.79C483.403 171.484 484.185 171.026 484.739 170.416C485.292 169.805 485.569 169.051 485.569 168.154C485.569 166.017 484.242 164.843 481.59 164.633L476.837 164.232C474.948 164.06 473.345 163.66 472.028 163.03C470.73 162.4 469.738 161.503 469.051 160.339C468.383 159.175 468.049 157.734 468.049 156.016C468.049 153.211 469.108 150.997 471.227 149.375C473.364 147.733 476.036 146.913 479.242 146.913C484.032 146.913 487.706 148.029 490.264 150.262L486.514 154.07C484.777 152.619 482.334 151.894 479.185 151.894C477.429 151.894 476.084 152.237 475.148 152.924C474.232 153.611 473.774 154.547 473.774 155.73C473.774 157.734 475.148 158.86 477.897 159.108L482.592 159.537C484.443 159.69 486.027 160.091 487.344 160.74C488.68 161.389 489.691 162.314 490.378 163.517C491.084 164.719 491.437 166.188 491.437 167.925ZM511.133 177H507.555C505.799 177 504.301 176.618 503.06 175.855C501.839 175.092 500.923 174.09 500.312 172.849C499.701 171.589 499.396 170.215 499.396 168.727V152.381H496.018V147.8H499.396V138.783H505.379V147.8H511.133V152.381H505.379V168.44C505.379 170.75 506.476 171.904 508.671 171.904H511.133V177ZM524.903 141.416H518.576V135.09H524.903V141.416ZM524.731 177H518.748V147.285H524.731V177ZM558.368 177H552.385V158.879C552.385 157.39 552.118 156.15 551.583 155.157C551.068 154.165 550.362 153.44 549.465 152.982C548.568 152.505 547.547 152.266 546.402 152.266C544.608 152.266 543.129 152.829 541.965 153.955C540.82 155.062 540.247 156.703 540.247 158.879V177H534.264V147.285H540.132V150.262C541.125 149.174 542.318 148.344 543.711 147.772C545.104 147.199 546.545 146.913 548.034 146.913C551.068 146.913 553.511 147.819 555.362 149.632C557.366 151.56 558.368 154.346 558.368 157.991V177ZM590.259 176.828C590.259 179.271 589.744 181.428 588.713 183.298C587.702 185.187 586.242 186.666 584.333 187.735C582.425 188.823 580.163 189.367 577.548 189.367C576.022 189.367 574.667 189.233 573.483 188.966C572.3 188.718 571.184 188.298 570.134 187.707C569.103 187.134 568.073 186.38 567.042 185.445L570.878 181.638C571.909 182.573 572.892 183.241 573.827 183.642C574.781 184.061 575.945 184.271 577.319 184.271C579.686 184.271 581.442 183.556 582.587 182.124C583.732 180.693 584.304 178.889 584.304 176.714V172.906C583.274 174.128 582.138 174.996 580.898 175.511C579.657 176.027 578.226 176.284 576.604 176.284C575.191 176.284 573.865 176.055 572.624 175.597C571.384 175.139 570.344 174.49 569.504 173.651C568.168 172.315 567.281 170.692 566.842 168.784C566.403 166.875 566.183 164.471 566.183 161.57C566.183 158.688 566.403 156.283 566.842 154.356C567.3 152.428 568.187 150.806 569.504 149.489C570.325 148.669 571.346 148.039 572.567 147.6C573.789 147.142 575.153 146.913 576.661 146.913C578.321 146.913 579.762 147.17 580.984 147.686C582.224 148.201 583.388 149.117 584.476 150.434V147.285H590.259V176.828ZM584.304 161.57C584.304 158.707 583.904 156.446 583.102 154.785C582.32 153.106 580.707 152.266 578.264 152.266C575.802 152.266 574.17 153.096 573.369 154.757C572.567 156.417 572.166 158.688 572.166 161.57C572.166 164.452 572.567 166.732 573.369 168.412C574.17 170.072 575.802 170.902 578.264 170.902C580.707 170.902 582.32 170.063 583.102 168.383C583.904 166.704 584.304 164.433 584.304 161.57Z" fill="white"/>
<path d="M2.56 176.232L38.656 131.688L2.816 88.168H42.24L59.392 109.16L76.288 88.168H114.432L79.36 132.456L114.688 176.232H75.52L58.112 155.24L41.216 176.232H2.56ZM117.566 176.616L145.214 109.416C145.214 109.416 152.638 87.656 173.118 87.656C193.598 87.656 201.79 109.16 201.79 109.16L228.414 176.744H195.902L188.734 158.952H157.246L150.59 176.616H117.566ZM179.262 132.712L172.862 116.712L166.718 132.712H179.262ZM231.447 176.488V88.168H262.167L262.423 176.488H231.447Z" fill="white"/>
</g>
<defs>
<clipPath id="clip0_31_3">
<rect width="591" height="277" fill="white"/>
</clipPath>
</defs>
</svg>
